HIERARCHY
ROOT Hips
{
    OFFSET   0.000000   0.000000   0.000000
    CHANNELS 6 Xposition Yposition Zposition Zrotation Xrotation Yrotation
    JOINT Chest
    {
        OFFSET   0.000000   8.007230   0.000000
        CHANNELS 3 Zrotation Xrotation Yrotation
        JOINT Chest2
        {
            OFFSET   0.000000  22.077100   0.000000
            CHANNELS 3 Zrotation Xrotation Yrotation
            JOINT Neck
            {
                OFFSET   0.000000  23.254800  -0.000021
                CHANNELS 3 Zrotation Xrotation Yrotation
                JOINT Head
                {
                    OFFSET   0.000000  14.370000   1.956610
                    CHANNELS 3 Zrotation Xrotation Yrotation
                    End Site
                    {
                        OFFSET   0.000000  19.566000   0.000000
                    }
                }
            }
            JOINT LeftCollar
            {
                OFFSET   3.911900  19.017000  -0.467063
                CHANNELS 3 Zrotation Xrotation Yrotation
                JOINT LeftShoulder
                {
                    OFFSET  10.383700   0.000000   0.000000
                    CHANNELS 3 Zrotation Xrotation Yrotation
                    JOINT LeftElbow
                    {
                        OFFSET  26.662100   0.001529   0.000325
                        CHANNELS 3 Zrotation Xrotation Yrotation
                        JOINT LeftWrist
                        {
                            OFFSET  28.869000  -0.000011  -0.000096
                            CHANNELS 3 Zrotation Xrotation Yrotation
                            JOINT LeftFinger0
                            {
                                OFFSET   2.044650  -2.323460   3.252850
                                CHANNELS 3 Zrotation Xrotation Yrotation
                                JOINT LeftFinger01
                                {
                                    OFFSET   3.088130   0.000000   0.000000
                                    CHANNELS 3 Zrotation Xrotation Yrotation
                                    JOINT LeftFinger02
                                    {
                                        OFFSET   2.639460   0.000000   0.000000
                                        CHANNELS 3 Zrotation Xrotation Yrotation
                                        End Site
                                        {
                                            OFFSET   2.582190   0.000000   0.000000
                                        }
                                    }
                                }
                            }
                            JOINT LeftFinger1
                            {
                                OFFSET   8.364480   0.000000   3.252850
                                CHANNELS 3 Zrotation Xrotation Yrotation
                                JOINT LeftFinger11
                                {
                                    OFFSET   4.646930   0.000000   0.000000
                                    CHANNELS 3 Zrotation Xrotation Yrotation
                                    JOINT LeftFinger12
                                    {
                                        OFFSET   2.323460   0.000000   0.000000
                                        CHANNELS 3 Zrotation Xrotation Yrotation
                                        End Site
                                        {
                                            OFFSET   2.273050   0.000000   0.000000
                                        }
                                    }
                                }
                            }
                            JOINT LeftFinger2
                            {
                                OFFSET   8.364480   0.000016   1.078090
                                CHANNELS 3 Zrotation Xrotation Yrotation
                                JOINT LeftFinger21
                                {
                                    OFFSET   5.111620   0.000000   0.000000
                                    CHANNELS 3 Zrotation Xrotation Yrotation
                                    JOINT LeftFinger22
                                    {
                                        OFFSET   2.788160   0.000017   0.000000
                                        CHANNELS 3 Zrotation Xrotation Yrotation
                                        End Site
                                        {
                                            OFFSET   2.727660   0.000000   0.000000
                                        }
                                    }
                                }
                            }
                            JOINT LeftFinger3
                            {
                                OFFSET   7.899780   0.000015  -1.078090
                                CHANNELS 3 Zrotation Xrotation Yrotation
                                JOINT LeftFinger31
                                {
                                    OFFSET   4.646920   0.000000   0.000000
                                    CHANNELS 3 Zrotation Xrotation Yrotation
                                    JOINT LeftFinger32
                                    {
                                        OFFSET   2.323470   0.000000   0.000000
                                        CHANNELS 3 Zrotation Xrotation Yrotation
                                        End Site
                                        {
                                            OFFSET   2.273050   0.000000   0.000000
                                        }
                                    }
                                }
                            }
                            JOINT LeftFinger4
                            {
                                OFFSET   7.435090   0.000000  -3.252850
                                CHANNELS 3 Zrotation Xrotation Yrotation
                                JOINT LeftFinger41
                                {
                                    OFFSET   3.717550   0.000000   0.000000
                                    CHANNELS 3 Zrotation Xrotation Yrotation
                                    JOINT LeftFinger42
                                    {
                                        OFFSET   1.858760   0.000000   0.000000
                                        CHANNELS 3 Zrotation Xrotation Yrotation
                                        End Site
                                        {
                                            OFFSET   1.818440   0.000000   0.000000
                                        }
                                    }
                                }
                            }
                        }
                    }
                }
            }
            JOINT RightCollar
            {
                OFFSET  -3.911900  19.017000  -0.467062
                CHANNELS 3 Zrotation Xrotation Yrotation
                JOINT RightShoulder
                {
                    OFFSET -10.383700   0.000015   0.000000
                    CHANNELS 3 Zrotation Xrotation Yrotation
                    JOINT RightElbow
                    {
                        OFFSET -26.662100   0.001341   0.000385
                        CHANNELS 3 Zrotation Xrotation Yrotation
                        JOINT RightWrist
                        {
                            OFFSET -28.869000   0.000025  -0.000080
                            CHANNELS 3 Zrotation Xrotation Yrotation
                            JOINT RightFinger0
                            {
                                OFFSET  -2.044650  -2.323490   3.252850
                                CHANNELS 3 Zrotation Xrotation Yrotation
                                JOINT RightFinger01
                                {
                                    OFFSET  -3.088130   0.000000   0.000000
                                    CHANNELS 3 Zrotation Xrotation Yrotation
                                    JOINT RightFinger02
                                    {
                                        OFFSET  -2.639460   0.000000   0.000000
                                        CHANNELS 3 Zrotation Xrotation Yrotation
                                        End Site
                                        {
                                            OFFSET  -2.582190   0.000000   0.000000
                                        }
                                    }
                                }
                            }
                            JOINT RightFinger1
                            {
                                OFFSET  -8.364480   0.000000   3.252850
                                CHANNELS 3 Zrotation Xrotation Yrotation
                                JOINT RightFinger11
                                {
                                    OFFSET  -4.646930   0.000000   0.000000
                                    CHANNELS 3 Zrotation Xrotation Yrotation
                                    JOINT RightFinger12
                                    {
                                        OFFSET  -2.323470   0.000000   0.000000
                                        CHANNELS 3 Zrotation Xrotation Yrotation
                                        End Site
                                        {
                                            OFFSET  -2.273050   0.000000   0.000000
                                        }
                                    }
                                }
                            }
                            JOINT RightFinger2
                            {
                                OFFSET  -8.364480   0.000000   1.078090
                                CHANNELS 3 Zrotation Xrotation Yrotation
                                JOINT RightFinger21
                                {
                                    OFFSET  -5.111610   0.000000   0.000000
                                    CHANNELS 3 Zrotation Xrotation Yrotation
                                    JOINT RightFinger22
                                    {
                                        OFFSET  -2.788160   0.000000   0.000000
                                        CHANNELS 3 Zrotation Xrotation Yrotation
                                        End Site
                                        {
                                            OFFSET  -2.727660   0.000000   0.000000
                                        }
                                    }
                                }
                            }
                            JOINT RightFinger3
                            {
                                OFFSET  -7.899780   0.000000  -1.078090
                                CHANNELS 3 Zrotation Xrotation Yrotation
                                JOINT RightFinger31
                                {
                                    OFFSET  -4.646920   0.000000   0.000000
                                    CHANNELS 3 Zrotation Xrotation Yrotation
                                    JOINT RightFinger32
                                    {
                                        OFFSET  -2.323470   0.000000   0.000000
                                        CHANNELS 3 Zrotation Xrotation Yrotation
                                        End Site
                                        {
                                            OFFSET  -2.273050   0.000000   0.000000
                                        }
                                    }
                                }
                            }
                            JOINT RightFinger4
                            {
                                OFFSET  -7.435090   0.000000  -3.252850
                                CHANNELS 3 Zrotation Xrotation Yrotation
                                JOINT RightFinger41
                                {
                                    OFFSET  -3.717550   0.000000   0.000000
                                    CHANNELS 3 Zrotation Xrotation Yrotation
                                    JOINT RightFinger42
                                    {
                                        OFFSET  -1.858770   0.000000   0.000000
                                        CHANNELS 3 Zrotation Xrotation Yrotation
                                        End Site
                                        {
                                            OFFSET  -1.818440   0.000000   0.000000
                                        }
                                    }
                                }
                            }
                        }
                    }
                }
            }
        }
    }
    JOINT LeftHip
    {
        OFFSET   9.783010   0.000000   0.000000
        CHANNELS 3 Zrotation Xrotation Yrotation
        JOINT LeftKnee
        {
            OFFSET   0.000070 -41.789100   0.000028
            CHANNELS 3 Zrotation Xrotation Yrotation
            JOINT LeftAnkle
            {
                OFFSET   0.000087 -41.133200  -0.000100
                CHANNELS 3 Zrotation Xrotation Yrotation
                JOINT LeftToe
                {
                    OFFSET   0.000000  -6.358960  14.674500
                    CHANNELS 3 Zrotation Xrotation Yrotation
                    End Site
                    {
                        OFFSET   0.000000   0.000000   3.913200
                    }
                }
            }
        }
    }
    JOINT RightHip
    {
        OFFSET  -9.783020   0.000000   0.000000
        CHANNELS 3 Zrotation Xrotation Yrotation
        JOINT RightKnee
        {
            OFFSET   0.000044 -41.789100  -0.000870
            CHANNELS 3 Zrotation Xrotation Yrotation
            JOINT RightAnkle
            {
                OFFSET  -0.000090 -41.133200  -0.000245
                CHANNELS 3 Zrotation Xrotation Yrotation
                JOINT RightToe
                {
                    OFFSET   0.000000  -6.358960  14.674500
                    CHANNELS 3 Zrotation Xrotation Yrotation
                    End Site
                    {
                        OFFSET   0.000000   0.000000   3.913200
                    }
                }
            }
        }
    }
}
MOTION
Frames: 6
Frame Time:   0.016667
 -1.489820  89.514000  -0.005857  -3.174560  -8.713300  -2.427100   0.914600   5.266070   0.196824   1.822580  10.534600   0.310769   0.886834   0.199773  -0.014210   1.455230   0.386939   5.153480  -7.139710  -1.423280  -1.549760 -72.139600  17.198800   2.424280  -1.604840  -4.647400 -22.560500  17.588000 -18.996800  10.772100  42.809200  36.341800 -64.277600 -29.876000  -0.006492   0.001509  -9.931990  -0.006428   0.003424 -28.373800   4.526520  -8.313220 -23.484200  -0.003480  -0.003373 -16.439000   0.003734  -0.002815 -28.235200  -0.680107   1.265800 -33.748100  -0.001529   0.006468 -22.476200   0.003829  -0.004963 -27.926200  -0.673417   1.269400 -31.611900  -0.003850   0.006790 -21.053500   0.013822  -0.006075 -27.774000  -0.669774   1.271270 -41.672100  -0.001667  -0.008863 -27.753700   0.001519  -0.006176  11.037600   0.891188   7.875930  67.971100  15.578900  -4.315550  -4.609230   0.392322  19.971200 -12.958700  -6.544570   0.172534 -40.643500  32.486600  64.131400  28.408300  -0.009055   0.000802   9.204170  -0.005902   0.000405  27.799900   5.550030  10.394600  23.156200   0.011486  -0.002459  16.209300   0.003803  -0.003166  28.333200   3.743890   6.902190  36.979000  -0.003492   0.001270  24.628000  -0.000750  -0.010926  28.092300   3.079150   5.734730  33.770700   0.003589   0.000639  22.491300  -0.000365  -0.001491  35.540800   0.112163   0.157028  53.311400  -0.004190  -0.001036  35.505400  -0.001546  -0.003110   3.854500  11.948000   3.948080   1.940450   0.001538   9.255710  -2.964630  -3.766940   2.052140  -0.000000   0.000000  -0.000000   3.380410  10.946900  -4.551950   0.980013   0.795464  -9.547080  -0.184269  -3.996280   3.092850  -0.000000   0.000000   0.000000
 -1.485130  89.514200  -0.005555  -3.177040  -8.719590  -2.442370   0.914678   5.273160   0.196532   1.822760  10.548800   0.309998   0.886853   0.199765  -0.014196   1.455290   0.395762   5.153470  -7.132240  -1.423190  -1.544820 -72.136200  17.230800   2.398280  -1.602610  -4.652480 -22.578200  17.596700 -18.981100  10.772800  42.821000  36.350700 -64.277500 -29.867400  -0.006495   0.001502  -9.931780  -0.006426   0.003416 -28.367700   4.522780  -8.308690 -23.478800  -0.003480  -0.003368 -16.435200   0.003736  -0.002812 -28.235100  -0.680041   1.269280 -33.738900  -0.001527   0.006469 -22.470100   0.003826  -0.004958 -27.926100  -0.673351   1.272880 -31.609200  -0.003851   0.006793 -21.051700   0.013827  -0.006066 -27.772300  -0.669704   1.274760 -41.669600  -0.001677  -0.008851 -27.752000   0.001512  -0.006172  11.030300   0.895144   7.865690  67.964900  15.602100  -4.271750  -4.599320   0.383916  19.941800 -12.946100  -6.542320   0.167967 -40.642900  32.500500  64.119000  28.426600  -0.009025   0.000879   9.213310  -0.005889   0.000452  27.799200   5.539350  10.375400  23.155100   0.011492  -0.002381  16.208500   0.003779  -0.003131  28.335000   3.735970   6.887680  36.970100  -0.003524   0.001302  24.622100  -0.000762  -0.010977  28.090900   3.074380   5.731380  33.757100   0.003557   0.000680  22.482300  -0.000369  -0.001456  35.533300   0.113528   0.158972  53.300200  -0.004225  -0.001004  35.497900  -0.001522  -0.003073   3.853100  11.958200   3.952030   1.940560   0.001162   9.260720  -2.964220  -3.769000   2.057690  -0.000000   0.000000   0.000000   3.379610  10.944600  -4.548550   0.981609   0.808029  -9.549910  -0.183183  -3.998150   3.105950  -0.000000   0.000000   0.000000
 -1.477780  89.514700  -0.005252  -3.181230  -8.731140  -2.467860   0.914836   5.287150   0.196242   1.823100  10.576700   0.309241   0.886872   0.199712  -0.014165   1.455340   0.404585   5.153360  -7.118060  -1.423100  -1.534840 -72.130800  17.295100   2.347320  -1.595270  -4.665050 -22.601300  17.613900 -18.964100  10.778700  42.843200  36.368200 -64.281100 -29.858800  -0.006498   0.001482  -9.931560  -0.006421   0.003385 -28.359100   4.516550  -8.300240 -23.471100  -0.003486  -0.003353 -16.429800   0.003745  -0.002802 -28.234900  -0.679918   1.275040 -33.723800  -0.001519   0.006472 -22.460000   0.003816  -0.004941 -27.926000  -0.673230   1.278650 -31.602100  -0.003857   0.006798 -21.047000   0.013840  -0.006040 -27.767800  -0.669577   1.280560 -41.662800  -0.001702  -0.008822 -27.747500   0.001494  -0.006160  11.017900   0.899117   7.847950  67.969000  15.654900  -4.201220  -4.581570   0.366526  19.878700 -12.933600  -6.526570   0.163397 -40.657800  32.520700  64.114900  28.444900  -0.008950   0.001009   9.222450  -0.005869   0.000526  27.794100   5.521380  10.344800  23.149800   0.011505  -0.002206  16.204800   0.003721  -0.003062  28.337800   3.723790   6.865490  36.950100  -0.003596   0.001353  24.608800  -0.000793  -0.011083  28.087200   3.067270   5.725690  33.724700   0.003480   0.000746  22.460700  -0.000375  -0.001370  35.516300   0.117039   0.163985  53.274700  -0.004302  -0.000933  35.480900  -0.001466  -0.002987   3.851340  11.968300   3.957670   1.941030   0.000786   9.269270  -2.963380  -3.780500   2.066920  -0.000000   0.000000  -0.000000   3.378340  10.942300  -4.542680   0.984252   0.828012  -9.556070  -0.180886  -4.001650   3.129160  -0.000000   0.000000   0.000000
 -1.471890  89.516000  -0.005299  -3.184610  -8.742160  -2.488140   0.915015   5.302460   0.196493   1.823420  10.607300   0.309691   0.886871   0.199220  -0.014124   1.455440   0.403963   5.148390  -7.102970  -1.426700  -1.519660 -72.128200  17.368000   2.290130  -1.580130  -4.682950 -22.608000  17.631400 -18.962400  10.793700  42.858000  36.388500 -64.292200 -29.863000  -0.006498   0.001448  -9.932710  -0.006418   0.003329 -28.354700   4.510310  -8.289060 -23.466900  -0.003502  -0.003330 -16.426800   0.003770  -0.002785 -28.234700  -0.679759   1.280710 -33.709500  -0.001504   0.006476 -22.450500   0.003799  -0.004913 -27.925800  -0.673072   1.284340 -31.586800  -0.003868   0.006802 -21.036800   0.013859  -0.005994 -27.758100  -0.669411   1.286340 -41.648200  -0.001739  -0.008777 -27.737700   0.001469  -0.006141  11.008000   0.874049   7.830700  67.997800  15.717100  -4.137440  -4.566610   0.346398  19.792200 -12.942000  -6.493390   0.165817 -40.709600  32.570300  64.180700  28.437700  -0.008832   0.001144   9.218850  -0.005856   0.000584  27.776300   5.505310  10.323700  23.133800   0.011523  -0.001956  16.193600   0.003632  -0.002972  28.340500   3.714650   6.849340  36.922700  -0.003702   0.001400  24.590500  -0.000840  -0.011226  28.079600   3.062640   5.719650  33.662600   0.003362   0.000807  22.419300  -0.000380  -0.001236  35.485800   0.124258   0.174311  53.229000  -0.004413  -0.000830  35.450500  -0.001387  -0.002860   3.850250  11.960000   3.959690   1.941490   0.051068   9.276180  -2.962840  -3.816170   2.074480  -0.000000   0.000000   0.000000   3.376390  10.943000  -4.536170   0.986543   0.841915  -9.566490  -0.177256  -4.005080   3.151370  -0.000000   0.000000   0.000000
 -1.468640  89.517600  -0.005630  -3.188230  -8.755460  -2.508880   0.915115   5.321300   0.198217   1.823530  10.645100   0.312656   0.886870   0.198287  -0.014071   1.455680   0.402350   5.133880  -7.086410  -1.436880  -1.509510 -72.123400  17.456600   2.224510  -1.564410  -4.707120 -22.609700  17.651100 -18.960900  10.811700  42.866300  36.409900 -64.308100 -29.871600  -0.006496   0.001398  -9.935810  -0.006411   0.003251 -28.352900   4.506560  -8.281810 -23.465000  -0.003524  -0.003300 -16.425500   0.003803  -0.002763 -28.234500  -0.679656   1.284090 -33.701100  -0.001483   0.006480 -22.444900   0.003778  -0.004877 -27.925700  -0.672971   1.287740 -31.576000  -0.003882   0.006807 -21.029600   0.013885  -0.005936 -27.751200  -0.669305   1.289810 -41.637900  -0.001786  -0.008719 -27.730800   0.001436  -0.006117  11.010400   0.796402   7.815840  68.053500  15.816500  -4.101750  -4.546650   0.320421  19.701700 -12.995000  -6.407870   0.168219 -40.715500  32.612500  64.239400  28.422600  -0.008704   0.001225   9.211270  -0.005846   0.000615  27.764800   5.491860  10.303300  23.122100   0.011542  -0.001676  16.185400   0.003524  -0.002896  28.342700   3.709780   6.840850  36.889700  -0.003814   0.001427  24.568500  -0.000899  -0.011368  28.074300   3.060360   5.715960  33.619400   0.003226   0.000843  22.390500  -0.000387  -0.001084  35.464800   0.129331   0.181570  53.197500  -0.004532  -0.000715  35.429500  -0.001295  -0.002715   3.849170  11.951700   3.961630   1.941600   0.101348   9.284150  -2.962500  -3.842410   2.081600   0.000000   0.000000  -0.000000   3.374660  10.946300  -4.532170   0.988385   0.854805  -9.573610  -0.172898  -4.009250   3.173700   0.000000   0.000000   0.000000
 -1.468850  89.519000  -0.008800  -3.192280  -8.771990  -2.530240   0.915023   5.344170   0.203607   1.823090  10.690900   0.322981   0.886926   0.197719  -0.014006   1.455940   0.400896   5.108030  -7.068550  -1.454280  -1.513690 -72.111800  17.567800   2.152000  -1.553640  -4.739220 -22.594400  17.675700 -18.959100  10.828400  42.872200  36.428800 -64.329400 -29.882000  -0.006479   0.001323  -9.940870  -0.006395   0.003151 -28.359900   4.506650  -8.286500 -23.470800  -0.003546  -0.003262 -16.429500   0.003840  -0.002737 -28.234600  -0.679672   1.278030 -33.705800  -0.001456   0.006485 -22.448100   0.003756  -0.004836 -27.925700  -0.672986   1.281650 -31.580900  -0.003897   0.006815 -21.032900   0.013916  -0.005870 -27.751900  -0.669321   1.283700 -41.638900  -0.001843  -0.008650 -27.731500   0.001395  -0.006087  11.036600   0.655991   7.812090  68.144800  15.971700  -4.117560  -4.524390   0.304033  19.620800 -13.118500  -6.240980   0.141211 -40.631300  32.510500  64.273500  28.413400  -0.008589   0.001171   9.206690  -0.005836   0.000591  27.799900   5.487900  10.276200  23.149100   0.011560  -0.001401  16.204300   0.003403  -0.002872  28.336600   3.740830   6.897590  36.872100  -0.003917   0.001408  24.556800  -0.000964  -0.011476  28.078400   3.068160   5.726860  33.643700   0.003093   0.000818  22.406700  -0.000396  -0.000939  35.489100   0.123628   0.173359  53.233800  -0.004644  -0.000608  35.453800  -0.001201  -0.002571   3.846570  11.990300   3.966020   1.941310   0.051031   9.295000  -2.955620  -3.823260   2.087210  -0.000000   0.000000  -0.000000   3.374210  10.953700  -4.532610   0.989666   0.866884  -9.570770  -0.169322  -4.015120   3.192880  -0.000000   0.000000  -0.000000
